# xmcd CD database file
#
# Track frame offsets:
#	182
#	22910
#	35840
#	54010
#	72585
#	89612
#	117250
#	135892
#	154185
#	179627
#	195530
#	211110
#	228352
#
# Disc length: 3284 seconds
#
# Revision: 4
# Processed by: cddbd v1.5.2PL0 Copyright (c) Steve Scherf et al.
# Submitted via: CDex 1.51
#
DISCID=ac0cd20d
DTITLE=Mavis Staples and Lucky Peterson - Spirituals and Gospel
DYEAR=1996
DGENRE=Gospel
TTITLE0=Nobody Knows The Trouble I've Seen
TTITLE1=A Rusty Old Halo
TTITLE2=He's Got The Whole World In His Hands
TTITLE3=If I Could Hear My Mother Pray Again
TTITLE4=Wade In The Water
TTITLE5=Precious Lord Take My Hand
TTITLE6=I'll Fly Away From Here
TTITLE7=Were You There
TTITLE8=Go Down, Moses
TTITLE9=Steal Away
TTITLE10=Swing Low, Sweet Chariot
TTITLE11=Down By The Riverside
TTITLE12=Stand By Me
EXTD=YEAR: 1996
EXTT0=
EXTT1=
EXTT2=
EXTT3=
EXTT4=
EXTT5=
EXTT6=
EXTT7=
EXTT8=
EXTT9=
EXTT10=
EXTT11=
EXTT12=
PLAYORDER=
